<svg width="48" height="48" viewBox="0 0 48 48" fill="none" xmlns="http://www.w3.org/2000/svg">
<path d="M24 48C37.2548 48 48 37.2548 48 24C48 10.7452 37.2548 0 24 0C10.7452 0 0 10.7452 0 24C0 37.2548 10.7452 48 24 48Z" fill="#32BEFA"/>
<path opacity="0.9" d="M19.5984 35C18.8209 35 18.953 34.7064 18.6849 33.9661L16.3984 26.4412L33.9984 16" fill="#C7D8E7"/>
<path d="M19.6016 34.9995C20.2016 34.9995 20.4667 34.7251 20.8016 34.3995L24.0016 31.2879L20.01 28.8809" fill="#A2BED3"/>
<path d="M20.0094 28.8815L29.6814 36.0273C30.7851 36.6363 31.5817 36.321 31.8566 35.0026L35.7936 16.45C36.1967 14.834 35.1776 14.101 34.1217 14.5804L11.0037 23.4946C9.4257 24.1275 9.4349 25.0079 10.7161 25.4002L16.6487 27.2518L30.3833 18.5868C31.0317 18.1936 31.6267 18.405 31.1383 18.8385" fill="white"/>
</svg>
