<svg width="48" height="48" viewBox="0 0 48 48" fill="none" xmlns="http://www.w3.org/2000/svg">
<circle cx="24" cy="24" r="24" fill="#65E46A"/>
<path fill-rule="evenodd" clip-rule="evenodd" d="M33.9203 14.0691C31.2882 11.4465 27.7878 10.0016 24.0584 10C16.3741 10 10.1199 16.2239 10.1168 23.8738C10.1159 26.3192 10.7577 28.706 11.9778 30.8103L10 38L17.3906 36.0706C19.4269 37.1759 21.7195 37.7586 24.0528 37.7594H24.0585C31.7421 37.7594 37.9968 31.5348 38 23.8847C38.0013 20.1775 36.5524 16.6916 33.9203 14.0691ZM24.0585 35.4162H24.0539C21.9746 35.4154 19.9352 34.8594 18.1562 33.8087L17.733 33.5589L13.3473 34.7038L14.5179 30.4483L14.2424 30.0117C13.0826 28.1758 12.4698 26.0537 12.4708 23.8745C12.4733 17.5162 17.6714 12.3433 24.0632 12.3433C27.1581 12.3444 30.0677 13.5455 32.2554 15.7254C34.4431 17.9052 35.6471 20.8026 35.6459 23.884C35.6434 30.2428 30.4453 35.4162 24.0585 35.4162ZM30.4145 26.7791C30.0662 26.6057 28.3537 25.7669 28.0343 25.6512C27.7151 25.5357 27.4827 25.4778 27.2506 25.8249C27.0184 26.1719 26.3506 26.9527 26.1474 27.1842C25.9442 27.4154 25.741 27.4445 25.3928 27.2709C25.0443 27.0975 23.922 26.7313 22.5914 25.5501C21.5559 24.6309 20.8567 23.4957 20.6535 23.1484C20.4503 22.8014 20.6318 22.6138 20.8063 22.4409C20.963 22.2855 21.1547 22.0359 21.3289 21.8335C21.5031 21.6312 21.5611 21.4865 21.6773 21.2551C21.7934 21.0238 21.7353 20.8213 21.6481 20.6478C21.5611 20.4742 20.8644 18.7677 20.5741 18.0736C20.2914 17.3977 20.0042 17.4891 19.7904 17.4784C19.5874 17.4684 19.355 17.4662 19.1227 17.4662C18.8905 17.4662 18.5131 17.5529 18.1938 17.9C17.8745 18.2471 16.9746 19.0858 16.9746 20.7923C16.9746 22.4987 18.2227 24.1471 18.397 24.3786C18.5711 24.6099 20.8534 28.1116 24.3477 29.6134C25.1787 29.9706 25.8277 30.1838 26.3336 30.3437C27.1682 30.6077 27.9275 30.5703 28.5277 30.4811C29.197 30.3815 30.5886 29.6424 30.8789 28.8326C31.1692 28.0227 31.1692 27.3285 31.0821 27.184C30.9951 27.0395 30.7629 26.9527 30.4145 26.7791Z" fill="white"/>
</svg>
